<svg xmlns="http://www.w3.org/2000/svg" viewBox="0 0 240 140" fill="none">
  <defs>
    <linearGradient id="petal" x1="0" y1="0" x2="1" y2="1">
      <stop offset="0%" stop-color="#fff8fb"/>
      <stop offset="55%" stop-color="#ffbfd3"/>
      <stop offset="100%" stop-color="#f58ab0"/>
    </linearGradient>
  </defs>
  <g opacity="0.95">
    <path d="M48 58c10-20 25-31 43-33-4 16-3 31 6 46-19-1-35-4-49-13z" fill="url(#petal)"/>
    <path d="M84 23c19 2 34 13 44 31-15 10-31 13-49 14 8-15 10-30 5-45z" fill="url(#petal)"/>
    <path d="M129 50c13 13 18 30 15 50-18 0-34-5-48-16 16-8 27-18 33-34z" fill="url(#petal)"/>
    <path d="M103 92c-4 19-16 33-34 43-11-15-15-32-13-51 14 11 30 16 47 18z" fill="url(#petal)"/>
    <path d="M56 85c-18-1-34-9-47-23C20 48 35 40 54 39c-7 14-7 29 2 46z" fill="url(#petal)"/>
    <circle cx="76" cy="63" r="8" fill="#f5c44a"/>
    <circle cx="71" cy="59" r="2.2" fill="#d89f1a"/>
    <circle cx="80" cy="59" r="2.2" fill="#d89f1a"/>
    <circle cx="67" cy="66" r="2.2" fill="#d89f1a"/>
    <circle cx="76" cy="69" r="2.2" fill="#d89f1a"/>
    <circle cx="85" cy="66" r="2.2" fill="#d89f1a"/>
  </g>
  <g opacity="0.6">
    <ellipse cx="182" cy="36" rx="16" ry="10" fill="#ffc8da" transform="rotate(-18 182 36)"/>
    <ellipse cx="202" cy="64" rx="12" ry="8" fill="#ffb3cc" transform="rotate(24 202 64)"/>
    <ellipse cx="160" cy="88" rx="10" ry="7" fill="#ffd5e3" transform="rotate(-30 160 88)"/>
  </g>
</svg>
